<svg width="22" height="22" viewBox="0 0 22 22" fill="none" xmlns="http://www.w3.org/2000/svg">
<path d="M20.8438 19.3203C21.0781 19.5286 21.0781 19.75 20.8438 19.9844L19.9844 20.8438C19.75 21.0781 19.5286 21.0781 19.3203 20.8438L14.5938 16.1172C14.4896 16.013 14.4375 15.9089 14.4375 15.8047V15.2578C12.901 16.5859 11.1302 17.25 9.125 17.25C6.88542 17.25 4.97135 16.4557 3.38281 14.8672C1.79427 13.2786 1 11.3646 1 9.125C1 6.88542 1.79427 4.97135 3.38281 3.38281C4.97135 1.79427 6.88542 1 9.125 1C11.3646 1 13.2786 1.79427 14.8672 3.38281C16.4557 4.97135 17.25 6.88542 17.25 9.125C17.25 11.1302 16.5859 12.901 15.2578 14.4375H15.8047C15.9349 14.4375 16.0391 14.4896 16.1172 14.5938L20.8438 19.3203ZM4.71094 13.5391C5.9349 14.763 7.40625 15.375 9.125 15.375C10.8438 15.375 12.3151 14.763 13.5391 13.5391C14.763 12.3151 15.375 10.8438 15.375 9.125C15.375 7.40625 14.763 5.9349 13.5391 4.71094C12.3151 3.48698 10.8438 2.875 9.125 2.875C7.40625 2.875 5.9349 3.48698 4.71094 4.71094C3.48698 5.9349 2.875 7.40625 2.875 9.125C2.875 10.8438 3.48698 12.3151 4.71094 13.5391Z" fill="#000000"></path>
</svg>