<svg width="22" height="22" viewBox="0 0 22 22" fill="none" xmlns="http://www.w3.org/2000/svg">
<path d="M14.5156 12.875C15.9479 12.875 17.1719 13.3958 18.1875 14.4375C19.2292 15.4531 19.75 16.6771 19.75 18.1094V19.125C19.75 19.6458 19.5677 20.0885 19.2031 20.4531C18.8385 20.8177 18.3958 21 17.875 21H4.125C3.60417 21 3.16146 20.8177 2.79688 20.4531C2.43229 20.0885 2.25 19.6458 2.25 19.125V18.1094C2.25 16.6771 2.75781 15.4531 3.77344 14.4375C4.8151 13.3958 6.05208 12.875 7.48438 12.875C7.82292 12.875 8.31771 12.9792 8.96875 13.1875C9.64583 13.3958 10.3229 13.5 11 13.5C11.6771 13.5 12.3542 13.3958 13.0312 13.1875C13.7083 12.9792 14.2031 12.875 14.5156 12.875ZM17.875 19.125V18.1094C17.875 17.1979 17.5365 16.4167 16.8594 15.7656C16.2083 15.0885 15.4271 14.75 14.5156 14.75C14.4375 14.75 14.0208 14.8542 13.2656 15.0625C12.5365 15.2708 11.7812 15.375 11 15.375C10.2188 15.375 9.45052 15.2708 8.69531 15.0625C7.96615 14.8542 7.5625 14.75 7.48438 14.75C6.57292 14.75 5.77865 15.0885 5.10156 15.7656C4.45052 16.4167 4.125 17.1979 4.125 18.1094V19.125H17.875ZM14.9844 10.6094C13.8906 11.7031 12.5625 12.25 11 12.25C9.4375 12.25 8.10938 11.7031 7.01562 10.6094C5.92188 9.51562 5.375 8.1875 5.375 6.625C5.375 5.0625 5.92188 3.73438 7.01562 2.64062C8.10938 1.54688 9.4375 1 11 1C12.5625 1 13.8906 1.54688 14.9844 2.64062C16.0781 3.73438 16.625 5.0625 16.625 6.625C16.625 8.1875 16.0781 9.51562 14.9844 10.6094ZM13.6562 3.96875C12.9271 3.23958 12.0417 2.875 11 2.875C9.95833 2.875 9.07292 3.23958 8.34375 3.96875C7.61458 4.69792 7.25 5.58333 7.25 6.625C7.25 7.66667 7.61458 8.55208 8.34375 9.28125C9.07292 10.0104 9.95833 10.375 11 10.375C12.0417 10.375 12.9271 10.0104 13.6562 9.28125C14.3854 8.55208 14.75 7.66667 14.75 6.625C14.75 5.58333 14.3854 4.69792 13.6562 3.96875Z" fill="#000000"></path>
</svg>