<svg width="22" height="22" viewBox="0 0 22 22" fill="none" xmlns="http://www.w3.org/2000/svg">
	<path d="M20.425 7.71875C20.9458 7.77083 21.2844 8.04427 21.4406 8.53906C21.5969 9.03385 21.4927 9.46354 21.1281 9.82812L16.9875 13.8516L17.9641 19.5547C18.0422 20.0495 17.8729 20.4401 17.4562 20.7266C17.0396 21.0391 16.6099 21.0781 16.1672 20.8438L11.05 18.1875L5.93281 20.8438C5.4901 21.1042 5.06042 21.0781 4.64375 20.7656C4.22708 20.4531 4.05781 20.0495 4.13594 19.5547L5.1125 13.8516L0.971875 9.82812C0.607292 9.46354 0.503125 9.03385 0.659375 8.53906C0.815625 8.04427 1.15417 7.77083 1.675 7.71875L7.37812 6.85938L9.91719 1.70312C10.1516 1.23438 10.5292 1 11.05 1C11.5708 1 11.9484 1.23438 12.1828 1.70312L14.7219 6.85938L20.425 7.71875ZM14.9953 13.1875L18.9016 9.35938L13.4719 8.57812L11.05 3.65625L8.62812 8.57812L3.19844 9.35938L7.10469 13.1875L6.20625 18.6172L11.05 16.0391L15.8937 18.6172L14.9953 13.1875Z" fill="#000000"></path>
</svg>